<svg width="75" height="75" viewBox="0 0 75 75" fill="none" xmlns="http://www.w3.org/2000/svg">
<path d="M26.9362 66.6654H12.6445C11.5008 66.6654 10.4039 66.211 9.59513 65.4023C8.78638 64.5935 8.33203 63.4966 8.33203 62.3529V12.6445C8.33203 11.5008 8.78638 10.4039 9.59513 9.59513C10.4039 8.78638 11.5008 8.33203 12.6445 8.33203H26.957C28.0972 8.33754 29.1887 8.79432 29.993 9.60248C30.7972 10.4106 31.2487 11.5044 31.2487 12.6445V62.3529C31.2487 63.4966 30.7943 64.5935 29.9856 65.4023C29.1768 66.211 28.0799 66.6654 26.9362 66.6654ZM27.082 12.4987H12.4987V62.4987H27.082V12.4987Z" fill="white"/>
<path d="M62.3542 66.6654H48.0625C46.9188 66.6654 45.8219 66.211 45.0131 65.4023C44.2044 64.5935 43.75 63.4966 43.75 62.3529V12.6445C43.75 11.5008 44.2044 10.4039 45.0131 9.59513C45.8219 8.78638 46.9188 8.33203 48.0625 8.33203H62.375C63.5151 8.33754 64.6067 8.79432 65.4109 9.60248C66.2152 10.4106 66.6667 11.5044 66.6667 12.6445V62.3529C66.6667 63.4966 66.2123 64.5935 65.4036 65.4023C64.5948 66.211 63.4979 66.6654 62.3542 66.6654ZM62.5 12.4987H47.9167V62.4987H62.5V12.4987Z" fill="white"/>
</svg>
