<svg width="75" height="75" viewBox="0 0 75 75" fill="none" xmlns="http://www.w3.org/2000/svg">
<path d="M35.6052 65.7919L3.68853 40.7919C3.19052 40.4022 2.78777 39.9042 2.51078 39.3357C2.23379 38.7672 2.08984 38.1431 2.08984 37.5107C2.08984 36.8783 2.23379 36.2542 2.51078 35.6857C2.78777 35.1172 3.19052 34.6192 3.68853 34.2294L35.6052 9.22941C36.203 8.75296 36.9242 8.45678 37.6843 8.3756C38.4444 8.29443 39.2119 8.43161 39.8969 8.77108C40.5303 9.14512 41.0375 9.70008 41.353 10.3646C41.6686 11.0292 41.7782 11.7729 41.6677 12.5002V26.4586L64.2302 9.20858C64.828 8.73212 65.5492 8.43595 66.3093 8.35477C67.0694 8.27359 67.8369 8.41078 68.5219 8.75025C69.2192 9.09677 69.8055 9.63179 70.2143 10.2946C70.623 10.9574 70.8378 11.7215 70.8344 12.5002V62.5003C70.834 63.2754 70.6173 64.0351 70.2088 64.6939C69.8003 65.3527 69.2161 65.8845 68.5219 66.2294C67.8363 66.5664 67.0693 66.7022 66.3097 66.6211C65.5502 66.54 64.8291 66.2452 64.2302 65.7711L41.6677 48.5627V62.5003C41.7782 63.2276 41.6686 63.9713 41.353 64.6359C41.0375 65.3004 40.5303 65.8554 39.8969 66.2294C39.2113 66.5664 38.4443 66.7022 37.6847 66.6211C36.9252 66.54 36.2041 66.2452 35.6052 65.7711V65.7919ZM66.6677 62.5003L66.7927 12.5002L37.501 35.0002V12.5002L6.25103 37.5002L37.501 62.5003V40.0003L66.6677 62.5003Z" fill="white"/>
</svg>
