<svg width="18" height="18" viewBox="0 0 18 18" fill="none" xmlns="http://www.w3.org/2000/svg">
<path fill-rule="evenodd" clip-rule="evenodd" d="M17.1001 10.8008C17.5971 10.8008 18 11.2037 18 11.7007L18 15.3005C18 16.0165 17.7156 16.7032 17.2092 17.2096C16.7029 17.7159 16.0162 18.0003 15.3002 18.0003L2.70096 18.0003C1.98492 18.0003 1.29821 17.7159 0.791897 17.2096C0.285581 16.7032 0.00113464 16.0165 0.00113468 15.3005L0.00113483 11.7007C0.00113485 11.2037 0.404055 10.8008 0.901079 10.8008C1.3981 10.8008 1.80102 11.2037 1.80102 11.7007L1.80102 15.3005C1.80102 15.5392 1.89584 15.7681 2.06461 15.9369C2.23338 16.1056 2.46229 16.2004 2.70096 16.2004L15.3002 16.2004C15.5388 16.2004 15.7678 16.1056 15.9365 15.9369C16.1053 15.7681 16.2001 15.5392 16.2001 15.3005L16.2001 11.7007C16.2001 11.2037 16.603 10.8008 17.1001 10.8008Z" fill="#807E81"/>
<path fill-rule="evenodd" clip-rule="evenodd" d="M14.1309 6.56046C14.4824 6.91191 14.4824 7.48172 14.1309 7.83317L9.63123 12.3329C9.27978 12.6843 8.70997 12.6843 8.35852 12.3329L3.8588 7.83317C3.50735 7.48172 3.50735 6.91191 3.8588 6.56046C4.21025 6.20901 4.78006 6.20901 5.13151 6.56046L8.99487 10.4238L12.8582 6.56046C13.2097 6.20901 13.7795 6.20901 14.1309 6.56046Z" fill="#807E81"/>
<path fill-rule="evenodd" clip-rule="evenodd" d="M8.99459 -3.93378e-08C9.49161 -1.76121e-08 9.89453 0.402918 9.89453 0.899943L9.89453 11.6993C9.89453 12.1963 9.49161 12.5992 8.99459 12.5992C8.49756 12.5992 8.09464 12.1963 8.09464 11.6993L8.09464 0.899943C8.09464 0.402918 8.49756 -6.10634e-08 8.99459 -3.93378e-08Z" fill="#807E81"/>
</svg>
