<svg width="76" height="76" viewBox="0 0 76 76" fill="none" xmlns="http://www.w3.org/2000/svg">
<path d="M30.4 55.1L53.2 38L30.4 20.9V55.1ZM38 0C17.024 0 0 17.024 0 38C0 58.976 17.024 76 38 76C58.976 76 76 58.976 76 38C76 17.024 58.976 0 38 0ZM38 68.4C21.242 68.4 7.6 54.758 7.6 38C7.6 21.242 21.242 7.6 38 7.6C54.758 7.6 68.4 21.242 68.4 38C68.4 54.758 54.758 68.4 38 68.4Z" fill="#C52A47" fill-opacity="0.5"/>
<path d="M21.494 24.4977C19.94 24.4977 19.1441 25.2936 19.1441 26.8476V51.0286H26.3074V32.0779C26.3074 31.661 26.497 31.4336 26.876 31.4336H36.465V24.4977H21.494ZM27.4824 34.4657V40.7573H36.3892V34.4657H27.4824Z" fill="white"/>
<path d="M42.9254 24.4977C41.3714 24.4977 40.5755 25.2936 40.5755 26.8476V51.0286H47.7389V31.8126C47.7389 31.3957 47.9284 31.1683 48.3074 31.1683H52.8176C53.7273 31.1683 54.1821 31.661 54.1821 32.6086V33.4045C54.1821 34.1625 53.9547 34.7689 52.9313 34.7689H48.9138V40.7573H53.7652C58.5407 40.7573 60.9285 37.7252 60.9285 33.1013V31.5473C60.9285 26.8476 58.5407 24.4977 53.7652 24.4977H42.9254Z" fill="white"/>
</svg>
