<svg width="76" height="76" viewBox="0 0 76 76" fill="none" xmlns="http://www.w3.org/2000/svg">
<mask id="mask0_16_82" style="mask-type:luminance" maskUnits="userSpaceOnUse" x="4" y="4" width="68" height="68">
<path d="M38 69.6667C55.4895 69.6667 69.6666 55.4895 69.6666 38C69.6666 20.5105 55.4895 6.33333 38 6.33333C20.5105 6.33333 6.33331 20.5105 6.33331 38C6.33331 55.4895 20.5105 69.6667 38 69.6667Z" fill="white" stroke="white" stroke-width="4" stroke-linejoin="round"/>
<path d="M38 28.5C39.2598 28.5 40.468 27.9996 41.3588 27.1088C42.2496 26.218 42.75 25.0098 42.75 23.75C42.75 22.4902 42.2496 21.282 41.3588 20.3912C40.468 19.5004 39.2598 19 38 19C36.7402 19 35.532 19.5004 34.6412 20.3912C33.7504 21.282 33.25 22.4902 33.25 23.75C33.25 25.0098 33.7504 26.218 34.6412 27.1088C35.532 27.9996 36.7402 28.5 38 28.5ZM38 57C39.2598 57 40.468 56.4996 41.3588 55.6088C42.2496 54.718 42.75 53.5098 42.75 52.25C42.75 50.9902 42.2496 49.782 41.3588 48.8912C40.468 48.0004 39.2598 47.5 38 47.5C36.7402 47.5 35.532 48.0004 34.6412 48.8912C33.7504 49.782 33.25 50.9902 33.25 52.25C33.25 53.5098 33.7504 54.718 34.6412 55.6088C35.532 56.4996 36.7402 57 38 57ZM23.75 42.75C25.0098 42.75 26.218 42.2496 27.1088 41.3588C27.9996 40.468 28.5 39.2598 28.5 38C28.5 36.7402 27.9996 35.532 27.1088 34.6412C26.218 33.7504 25.0098 33.25 23.75 33.25C22.4902 33.25 21.282 33.7504 20.3912 34.6412C19.5004 35.532 19 36.7402 19 38C19 39.2598 19.5004 40.468 20.3912 41.3588C21.282 42.2496 22.4902 42.75 23.75 42.75ZM52.25 42.75C53.5098 42.75 54.718 42.2496 55.6088 41.3588C56.4996 40.468 57 39.2598 57 38C57 36.7402 56.4996 35.532 55.6088 34.6412C54.718 33.7504 53.5098 33.25 52.25 33.25C50.9902 33.25 49.782 33.7504 48.8912 34.6412C48.0004 35.532 47.5 36.7402 47.5 38C47.5 39.2598 48.0004 40.468 48.8912 41.3588C49.782 42.2496 50.9902 42.75 52.25 42.75Z" fill="black" stroke="black" stroke-width="4" stroke-linejoin="round"/>
<path d="M38 69.6667H69.6667" stroke="white" stroke-width="4" stroke-linecap="round"/>
</mask>
<g mask="url(#mask0_16_82)">
<path d="M0 0H76V76H0V0Z" fill="white" fill-opacity="0.32"/>
</g>
</svg>
