<svg width="539" height="85" viewBox="0 0 539 85" fill="none" xmlns="http://www.w3.org/2000/svg">
<path d="M82.39 72.904C81.302 72.904 80.598 72.2 80.278 70.792C79.958 70.088 79.798 68.808 79.798 66.952C79.798 61.384 79.734 56.424 79.606 52.072C79.414 45.8 79.318 39.176 79.318 32.2V11.08C79.318 10.504 79.574 9.96 80.086 9.44799C80.662 8.872 81.238 8.584 81.814 8.584L92.854 8.68C94.902 8.744 97.59 8.776 100.918 8.776C105.718 8.776 109.43 8.744 112.054 8.68L115.606 8.584C119.446 8.456 122.614 8.392 125.11 8.392C129.142 8.392 132.982 8.968 136.63 10.12C140.918 11.4 144.406 13.608 147.094 16.744C150.102 20.136 151.606 24.712 151.606 30.472C151.606 40.2 149.142 47.24 144.214 51.592C139.862 55.688 133.366 57.736 124.726 57.736H111.574C111.638 59.208 111.67 60.776 111.67 62.44C111.67 63.016 111.638 63.72 111.574 64.552C111.574 65.32 111.574 66.376 111.574 67.72C111.574 69.832 111.126 71.176 110.23 71.752C109.526 72.328 108.214 72.616 106.294 72.616C103.478 72.616 101.526 72.648 100.438 72.712C96.022 72.712 92.502 72.776 89.878 72.904H82.39ZM116.758 46.216C118.102 46.216 119.094 44.936 119.734 42.376C120.246 40.648 120.63 38.088 120.886 34.696C121.014 32.84 121.078 30.76 121.078 28.456V27.4C121.078 26.376 120.918 24.84 120.598 22.792C120.342 21.64 120.054 20.744 119.734 20.104C119.414 19.4 118.998 18.824 118.486 18.376C117.974 17.8 117.398 17.512 116.758 17.512C116.438 17.512 116.15 17.64 115.894 17.896C115.702 18.152 115.51 18.472 115.318 18.856C114.614 20.008 113.974 22.568 113.398 26.536C113.206 27.688 113.046 29.416 112.918 31.72C112.598 35.24 112.438 39.944 112.438 45.832C112.438 45.832 112.47 45.864 112.534 45.928C112.598 45.992 112.726 46.056 112.918 46.12L114.07 46.216H116.758Z" fill="#EEEEEE"/>
<path d="M186.345 73.48L185.097 73.288H183.561C182.601 73.16 180.937 73.032 178.569 72.904C178.057 72.904 177.577 72.872 177.129 72.808C176.681 72.744 176.265 72.712 175.881 72.712H173.769L172.809 72.616C170.761 72.616 169.257 72.648 168.297 72.712C167.337 72.84 165.833 72.904 163.785 72.904H161.865L160.137 73L159.849 72.616V58.504C159.849 56.968 159.785 55.848 159.657 55.144V52.84L160.041 48.712C160.233 46.152 160.329 42.472 160.329 37.672C160.457 29.928 160.937 24.328 161.769 20.872C162.217 19.016 162.953 17.832 163.977 17.32L175.209 17.416C176.169 17.48 177.545 17.512 179.337 17.512H183.945C184.265 17.576 184.841 17.64 185.673 17.704C186.569 17.768 187.241 17.928 187.689 18.184C188.073 18.504 188.329 18.952 188.457 19.528C188.649 20.04 188.745 20.808 188.745 21.832L188.649 22.6V23.752C188.457 24.2 188.361 24.648 188.361 25.096C188.233 25.608 188.201 26.12 188.265 26.632V28.072C188.329 28.392 188.361 28.84 188.361 29.416L188.457 30.184V32.392L188.553 35.464C188.617 36.104 188.649 37 188.649 38.152C188.777 39.048 188.937 39.656 189.129 39.976C189.129 40.424 189.097 40.904 189.033 41.416C188.969 41.928 188.937 42.44 188.937 42.952C188.873 43.72 188.841 44.872 188.841 46.408C188.841 47.88 188.873 48.968 188.937 49.672C188.937 50.696 189.097 51.752 189.417 52.84C190.057 53.096 190.793 53.224 191.625 53.224C193.737 53.224 195.913 53.192 198.153 53.128C200.457 53.064 202.505 52.872 204.297 52.552C204.681 52.616 205.033 52.872 205.353 53.32C205.737 53.768 205.929 54.152 205.929 54.472L205.257 70.984C205.129 71.368 204.873 71.624 204.489 71.752C203.401 72.264 201.897 72.584 199.977 72.712C197.417 73.096 195.721 73.288 194.889 73.288H193.257C191.977 73.288 191.017 73.32 190.377 73.384C189.097 73.512 188.201 73.576 187.689 73.576L186.345 73.48Z" fill="#EEEEEE"/>
<path d="M215.09 73.096C213.874 73.096 213.394 72.008 213.65 69.832C213.65 69.064 213.81 68.2 214.13 67.24C214.13 66.792 214.163 66.44 214.227 66.184C214.291 65.864 214.322 65.608 214.322 65.416C215.794 58.44 217.427 51.56 219.219 44.776L225.747 19.24C225.747 19.112 225.842 18.952 226.035 18.76C226.226 18.568 226.419 18.408 226.611 18.28H227.283C228.051 18.28 228.659 18.184 229.107 17.992C229.491 17.928 230.162 17.896 231.122 17.896C232.658 17.896 233.811 17.928 234.579 17.992C235.731 18.184 236.915 18.28 238.131 18.28L243.122 18.184C243.634 18.056 244.243 17.992 244.947 17.992L249.171 17.8H252.339C253.555 17.8 254.739 17.832 255.891 17.896H258.578C259.218 17.96 260.146 17.992 261.362 17.992H265.01C265.202 17.992 265.395 18.024 265.587 18.088C265.779 18.152 265.938 18.216 266.066 18.28C266.322 18.408 266.642 18.472 267.026 18.472H267.891C268.339 18.792 268.562 19.112 268.562 19.432L275.379 44.776C277.491 52.904 279.155 59.784 280.371 65.416C280.371 65.736 280.467 66.344 280.659 67.24C280.915 68.52 281.043 69.544 281.043 70.312C281.043 70.76 280.978 71.368 280.85 72.136C280.53 72.776 280.083 73.096 279.507 73.096H278.451C277.618 73.096 276.978 73.064 276.53 73H270.771C270.323 73 270.067 72.968 270.003 72.904H264.723L264.626 72.712C264.498 72.584 264.307 72.52 264.051 72.52L263.763 72.712C263.763 72.84 263.698 72.904 263.57 72.904H262.611C262.291 72.776 261.715 72.712 260.883 72.712C259.347 72.584 258.067 72.52 257.043 72.52C256.339 71.048 255.507 67.816 254.547 62.824C253.203 63.016 251.667 63.112 249.939 63.112H245.042C244.786 64.072 244.626 64.872 244.562 65.512C244.498 65.832 244.242 66.92 243.794 68.776C243.346 70.632 242.93 71.88 242.546 72.52L241.971 72.712C241.779 72.776 241.619 72.84 241.491 72.904C241.363 72.904 241.299 72.904 241.299 72.904H241.107C240.723 72.904 240.466 72.84 240.339 72.712C240.083 72.584 239.923 72.52 239.859 72.52L236.21 72.712H233.523C233.203 72.776 232.947 72.84 232.755 72.904C232.563 72.904 232.434 72.904 232.37 72.904H223.923C223.347 72.968 222.162 73 220.37 73H218.066C217.682 73.064 217.075 73.096 216.243 73.096H215.09ZM253.682 52.552C253.298 50.376 253.074 49.096 253.01 48.712L252.243 44.104C252.115 43.208 251.987 42.408 251.859 41.704C251.731 40.936 251.634 40.232 251.57 39.592C251.378 38.824 251.219 38.12 251.09 37.48C251.027 36.776 250.931 36.136 250.803 35.56C250.739 35.176 250.675 34.696 250.611 34.12C250.547 33.48 250.451 33.032 250.323 32.776L250.131 31.624C250.131 31.368 250.067 31.144 249.939 30.952L249.842 30.376C249.715 30.76 249.65 30.952 249.65 30.952V31.624C249.65 31.688 249.619 31.816 249.555 32.008C249.491 32.136 249.427 32.392 249.363 32.776C249.299 33.096 249.235 33.512 249.171 34.024C249.107 34.472 249.011 34.984 248.883 35.56L248.21 39.496L247.443 43.912L247.154 46.024C247.026 46.536 246.899 47.368 246.771 48.52C246.195 51.4 245.939 52.712 246.003 52.456H250.227C250.291 52.392 250.386 52.328 250.514 52.264C250.642 52.136 250.739 52.072 250.803 52.072H251.09C251.41 52.072 251.667 52.104 251.859 52.168C252.115 52.232 252.339 52.296 252.531 52.36C252.915 52.488 253.298 52.552 253.682 52.552Z" fill="#EEEEEE"/>
<path d="M323.822 84.904C323.438 84.904 322.478 84.648 320.942 84.136C320.686 84.072 320.302 83.912 319.79 83.656C319.342 83.464 318.926 83.368 318.542 83.368C318.286 83.368 317.838 83.208 317.198 82.888C316.75 82.568 316.334 82.408 315.95 82.408L314.798 82.12C314.414 82.12 314.158 82.088 314.03 82.024C313.838 82.024 313.742 81.992 313.742 81.928C311.694 81.48 309.614 80.744 307.502 79.72L301.262 77.128C300.814 76.936 300.59 76.616 300.59 76.168C300.59 75.784 300.686 75.4 300.878 75.016L303.47 70.504C304.11 69.288 305.006 67.848 306.158 66.184C306.606 65.736 307.054 64.936 307.502 63.784C307.886 62.888 308.078 62.344 308.078 62.152C307.118 60.296 305.902 58.312 304.43 56.2C302.958 53.64 301.774 51.944 300.878 51.112C300.75 50.792 300.462 50.28 300.014 49.576C298.99 47.784 298.51 46.952 298.574 47.08L296.942 44.2C296.494 43.56 295.95 42.6 295.31 41.32C294.926 40.68 294.51 39.88 294.062 38.92C293.486 37.96 293.166 37.384 293.102 37.192C292.59 36.616 291.726 35.08 290.51 32.584C289.358 30.024 288.782 28.488 288.782 27.976C288.782 27.72 289.038 27.4 289.55 27.016C290.062 26.568 290.638 26.12 291.278 25.672C293.326 24.712 294.67 24.136 295.31 23.944C296.142 23.56 296.846 23.24 297.422 22.984C298.062 22.728 298.574 22.504 298.958 22.312C300.43 21.608 302.478 20.744 305.102 19.72C305.614 19.464 306.83 18.952 308.75 18.184C309.454 17.992 310.094 17.896 310.67 17.896C311.054 17.896 311.374 18.024 311.63 18.28C311.886 18.408 312.27 18.92 312.782 19.816L316.142 27.112C318.062 31.144 319.406 33.864 320.174 35.272C320.302 35.464 320.43 35.72 320.558 36.04C320.686 36.296 320.814 36.488 320.942 36.616C321.326 37.128 321.678 37.384 321.998 37.384C322.19 37.384 322.35 37.288 322.478 37.096C322.67 36.904 322.798 36.744 322.862 36.616L329.39 19.432C329.646 18.6 330.19 17.96 331.022 17.512C331.726 17.064 332.59 16.904 333.614 17.032C337.774 18.376 340.846 19.464 342.83 20.296C346.734 21.896 349.614 23.304 351.47 24.52C352.11 24.84 352.526 25.256 352.718 25.768C352.974 26.216 353.006 26.664 352.814 27.112C352.75 27.688 352.59 28.168 352.334 28.552L351.758 29.704L336.398 63.016L335.63 64.936L326.222 82.888C325.774 83.656 325.358 84.168 324.974 84.424C324.654 84.744 324.27 84.904 323.822 84.904Z" fill="#EEEEEE"/>
<path d="M365.716 72.616C365.588 72.616 365.492 72.488 365.428 72.232C364.98 71.656 364.66 70.952 364.468 70.12C364.276 69.8 364.116 69.384 363.988 68.872C363.412 67.72 362.996 66.12 362.74 64.072C362.484 61.128 362.356 58.792 362.356 57.064C362.292 56.296 362.26 55.24 362.26 53.896V51.592C362.26 49.672 362.228 48.168 362.164 47.08C362.1 45.928 362.068 43.656 362.068 40.264C362.068 31.176 362.26 24.168 362.644 19.24C362.644 18.472 363.732 17.896 365.908 17.512H371.188C374.836 17.512 377.556 17.576 379.348 17.704C382.036 17.896 384.756 17.992 387.508 17.992C388.148 17.992 388.628 17.96 388.948 17.896H390.388L390.868 18.28C392.98 17.832 395.156 17.544 397.396 17.416C399.636 17.288 402.356 17.224 405.556 17.224C405.684 17.224 405.844 17.32 406.036 17.512H409.108C409.62 17.512 410.004 17.8 410.26 18.376C410.58 18.952 410.836 19.784 411.028 20.872C411.284 21.704 411.476 22.728 411.604 23.944C411.86 25.544 412.084 26.6 412.276 27.112C412.276 28.904 411.956 29.8 411.316 29.8C411.252 29.8 411.156 29.704 411.028 29.512L410.644 29.416C410.324 29.352 409.972 29.384 409.588 29.512C409.204 29.704 408.788 29.8 408.34 29.8C407.956 29.8 407.636 29.704 407.38 29.512C407.252 29.448 406.964 29.416 406.516 29.416C405.94 29.416 405.268 29.512 404.5 29.704C404.244 29.768 403.732 29.864 402.964 29.992C402.26 30.12 401.428 30.184 400.468 30.184C397.716 30.184 395.732 30.248 394.516 30.376C393.812 30.44 393.14 30.632 392.5 30.952V30.76C392.244 30.76 392.02 31.08 391.828 31.72C391.38 32.808 391.092 34.312 390.964 36.232C390.9 36.808 390.868 37.448 390.868 38.152C390.868 38.856 390.964 39.336 391.156 39.592C391.412 39.848 391.796 39.976 392.308 39.976C392.692 39.976 393.012 39.848 393.268 39.592C393.396 39.592 393.556 39.624 393.748 39.688C393.94 39.752 394.1 39.848 394.228 39.976H402.388C402.452 39.848 402.548 39.752 402.676 39.688C402.804 39.624 402.932 39.592 403.06 39.592C403.7 39.592 404.18 39.688 404.5 39.88C404.884 40.072 405.652 40.264 406.804 40.456C407.444 40.456 407.892 40.648 408.148 41.032C408.468 41.48 408.628 41.896 408.628 42.28L410.644 48.616C410.836 49.64 409.876 50.312 407.764 50.632C406.548 50.888 404.212 51.016 400.756 51.016H393.748C392.852 51.016 392.18 51.08 391.732 51.208C391.284 51.272 390.996 51.496 390.868 51.88C390.612 52.2 390.484 52.712 390.484 53.416V53.8C390.484 54.12 390.516 54.344 390.58 54.472L390.484 56.584C390.42 57.032 390.388 57.704 390.388 58.6V61C393.268 61 396.212 60.904 399.22 60.712C402.164 60.52 405.076 60.424 407.956 60.424C408.148 60.424 408.308 60.584 408.436 60.904C408.564 61.16 408.628 61.48 408.628 61.864C408.756 62.248 408.82 62.664 408.82 63.112C408.948 64.072 409.14 64.968 409.396 65.8L410.068 68.584V71.56L409.3 72.232H408.34C407.636 72.232 407.188 72.2 406.996 72.136C406.804 72.008 406.58 71.944 406.324 71.944C406.196 72.008 406.004 72.104 405.748 72.232C405.492 72.36 405.268 72.488 405.076 72.616V72.136L403.924 72.232H402.484C402.228 72.232 402.036 72.168 401.908 72.04L401.14 71.944C398.772 71.944 397.108 72.168 396.148 72.616H365.716Z" fill="#EEEEEE"/>
<path d="M449.314 73.48L448.066 73.288H446.53C445.57 73.16 443.906 73.032 441.538 72.904C441.026 72.904 440.546 72.872 440.098 72.808C439.65 72.744 439.234 72.712 438.85 72.712H436.738L435.778 72.616C433.73 72.616 432.226 72.648 431.266 72.712C430.306 72.84 428.802 72.904 426.754 72.904H424.834L423.106 73L422.818 72.616V58.504C422.818 56.968 422.754 55.848 422.626 55.144V52.84L423.01 48.712C423.202 46.152 423.298 42.472 423.298 37.672C423.426 29.928 423.906 24.328 424.738 20.872C425.186 19.016 425.922 17.832 426.946 17.32L438.178 17.416C439.138 17.48 440.514 17.512 442.306 17.512H446.914C447.234 17.576 447.81 17.64 448.642 17.704C449.538 17.768 450.21 17.928 450.658 18.184C451.042 18.504 451.298 18.952 451.426 19.528C451.618 20.04 451.714 20.808 451.714 21.832L451.618 22.6V23.752C451.426 24.2 451.33 24.648 451.33 25.096C451.202 25.608 451.17 26.12 451.234 26.632V28.072C451.298 28.392 451.33 28.84 451.33 29.416L451.426 30.184V32.392L451.522 35.464C451.586 36.104 451.618 37 451.618 38.152C451.746 39.048 451.906 39.656 452.098 39.976C452.098 40.424 452.066 40.904 452.002 41.416C451.938 41.928 451.906 42.44 451.906 42.952C451.842 43.72 451.81 44.872 451.81 46.408C451.81 47.88 451.842 48.968 451.906 49.672C451.906 50.696 452.066 51.752 452.386 52.84C453.026 53.096 453.762 53.224 454.594 53.224C456.706 53.224 458.882 53.192 461.122 53.128C463.426 53.064 465.474 52.872 467.266 52.552C467.65 52.616 468.002 52.872 468.322 53.32C468.706 53.768 468.898 54.152 468.898 54.472L468.226 70.984C468.098 71.368 467.842 71.624 467.458 71.752C466.37 72.264 464.866 72.584 462.946 72.712C460.386 73.096 458.69 73.288 457.858 73.288H456.226C454.946 73.288 453.986 73.32 453.346 73.384C452.066 73.512 451.17 73.576 450.658 73.576L449.314 73.48Z" fill="#EEEEEE"/>
<path d="M509.259 84.904C508.875 84.904 507.915 84.648 506.379 84.136C506.123 84.072 505.739 83.912 505.227 83.656C504.779 83.464 504.363 83.368 503.979 83.368C503.723 83.368 503.275 83.208 502.635 82.888C502.187 82.568 501.771 82.408 501.387 82.408L500.235 82.12C499.851 82.12 499.595 82.088 499.467 82.024C499.275 82.024 499.179 81.992 499.179 81.928C497.131 81.48 495.051 80.744 492.939 79.72L486.699 77.128C486.251 76.936 486.027 76.616 486.027 76.168C486.027 75.784 486.123 75.4 486.315 75.016L488.907 70.504C489.547 69.288 490.443 67.848 491.595 66.184C492.043 65.736 492.491 64.936 492.939 63.784C493.323 62.888 493.515 62.344 493.515 62.152C492.555 60.296 491.339 58.312 489.867 56.2C488.395 53.64 487.211 51.944 486.315 51.112C486.187 50.792 485.899 50.28 485.451 49.576C484.427 47.784 483.947 46.952 484.011 47.08L482.379 44.2C481.931 43.56 481.387 42.6 480.747 41.32C480.363 40.68 479.947 39.88 479.499 38.92C478.923 37.96 478.603 37.384 478.539 37.192C478.027 36.616 477.163 35.08 475.947 32.584C474.795 30.024 474.219 28.488 474.219 27.976C474.219 27.72 474.475 27.4 474.987 27.016C475.499 26.568 476.075 26.12 476.715 25.672C478.763 24.712 480.107 24.136 480.747 23.944C481.579 23.56 482.283 23.24 482.859 22.984C483.499 22.728 484.011 22.504 484.395 22.312C485.867 21.608 487.915 20.744 490.539 19.72C491.051 19.464 492.267 18.952 494.187 18.184C494.891 17.992 495.531 17.896 496.107 17.896C496.491 17.896 496.811 18.024 497.067 18.28C497.323 18.408 497.707 18.92 498.219 19.816L501.579 27.112C503.499 31.144 504.843 33.864 505.611 35.272C505.739 35.464 505.867 35.72 505.995 36.04C506.123 36.296 506.251 36.488 506.379 36.616C506.763 37.128 507.115 37.384 507.435 37.384C507.627 37.384 507.787 37.288 507.915 37.096C508.107 36.904 508.235 36.744 508.299 36.616L514.827 19.432C515.083 18.6 515.627 17.96 516.459 17.512C517.163 17.064 518.027 16.904 519.051 17.032C523.211 18.376 526.283 19.464 528.267 20.296C532.171 21.896 535.051 23.304 536.907 24.52C537.547 24.84 537.963 25.256 538.155 25.768C538.411 26.216 538.443 26.664 538.251 27.112C538.187 27.688 538.027 28.168 537.771 28.552L537.195 29.704L521.835 63.016L521.067 64.936L511.659 82.888C511.211 83.656 510.795 84.168 510.411 84.424C510.091 84.744 509.707 84.904 509.259 84.904Z" fill="#EEEEEE"/>
<path d="M58.0036 65.5H65.25V72.75H36.25C16.2291 72.75 0 56.5209 0 36.5C0 16.4791 16.2291 0.25 36.25 0.25C56.2709 0.25 72.5 16.4791 72.5 36.5C72.5047 42.1281 71.1968 47.6797 68.6804 52.7138C66.1639 57.748 62.5082 62.126 58.0036 65.5ZM36.25 29.25C38.1728 29.25 40.0169 28.4862 41.3765 27.1265C42.7362 25.7669 43.5 23.9228 43.5 22C43.5 20.0772 42.7362 18.2331 41.3765 16.8735C40.0169 15.5138 38.1728 14.75 36.25 14.75C34.3272 14.75 32.4831 15.5138 31.1235 16.8735C29.7638 18.2331 29 20.0772 29 22C29 23.9228 29.7638 25.7669 31.1235 27.1265C32.4831 28.4862 34.3272 29.25 36.25 29.25ZM21.75 43.75C23.6728 43.75 25.5169 42.9862 26.8765 41.6265C28.2362 40.2669 29 38.4228 29 36.5C29 34.5772 28.2362 32.7331 26.8765 31.3735C25.5169 30.0138 23.6728 29.25 21.75 29.25C19.8272 29.25 17.9831 30.0138 16.6235 31.3735C15.2638 32.7331 14.5 34.5772 14.5 36.5C14.5 38.4228 15.2638 40.2669 16.6235 41.6265C17.9831 42.9862 19.8272 43.75 21.75 43.75ZM50.75 43.75C52.6728 43.75 54.5169 42.9862 55.8765 41.6265C57.2362 40.2669 58 38.4228 58 36.5C58 34.5772 57.2362 32.7331 55.8765 31.3735C54.5169 30.0138 52.6728 29.25 50.75 29.25C48.8272 29.25 46.9831 30.0138 45.6235 31.3735C44.2638 32.7331 43.5 34.5772 43.5 36.5C43.5 38.4228 44.2638 40.2669 45.6235 41.6265C46.9831 42.9862 48.8272 43.75 50.75 43.75ZM36.25 58.25C38.1728 58.25 40.0169 57.4862 41.3765 56.1265C42.7362 54.7669 43.5 52.9228 43.5 51C43.5 49.0772 42.7362 47.2331 41.3765 45.8735C40.0169 44.5138 38.1728 43.75 36.25 43.75C34.3272 43.75 32.4831 44.5138 31.1235 45.8735C29.7638 47.2331 29 49.0772 29 51C29 52.9228 29.7638 54.7669 31.1235 56.1265C32.4831 57.4862 34.3272 58.25 36.25 58.25Z" fill="#E4B200"/>
</svg>
