<svg width="23" height="22" viewBox="0 0 23 22" fill="none" xmlns="http://www.w3.org/2000/svg">
<path fill-rule="evenodd" clip-rule="evenodd" d="M5.03906 7.66667C4.57883 7.66667 4.20573 8.03976 4.20573 8.5V17.6667C4.20573 18.1269 4.57883 18.5 5.03906 18.5H18.3724C18.8326 18.5 19.2057 18.1269 19.2057 17.6667V8.5C19.2057 8.03976 18.8326 7.66667 18.3724 7.66667H5.03906ZM2.53906 8.5C2.53906 7.11929 3.65835 6 5.03906 6H18.3724C19.7531 6 20.8724 7.11929 20.8724 8.5V17.6667C20.8724 19.0474 19.7531 20.1667 18.3724 20.1667H5.03906C3.65835 20.1667 2.53906 19.0474 2.53906 17.6667V8.5Z" fill="#807E81"/>
<path fill-rule="evenodd" clip-rule="evenodd" d="M6.95111 2.07611C7.27655 1.75067 7.80418 1.75067 8.12962 2.07611L11.707 5.65352L15.2844 2.07611C15.6099 1.75067 16.1375 1.75067 16.463 2.07611C16.7884 2.40155 16.7884 2.92918 16.463 3.25462L12.2963 7.42129C11.9708 7.74672 11.4432 7.74672 11.1178 7.42129L6.95111 3.25462C6.62567 2.92918 6.62567 2.40155 6.95111 2.07611Z" fill="#807E81"/>
<path d="M9.71615 16.1669C9.57448 16.1669 9.42448 16.1336 9.29948 16.0503C9.04115 15.9003 8.88281 15.6253 8.88281 15.3336V10.8253C8.88281 10.5253 9.04115 10.2503 9.29948 10.1086C9.55781 9.95859 9.87448 9.95859 10.1328 10.1086L14.0995 12.3669C14.3578 12.5169 14.5245 12.7919 14.5245 13.0919C14.5245 13.3919 14.3661 13.6669 14.0995 13.8169L10.1328 16.0753C9.99948 16.1253 9.85781 16.1669 9.71615 16.1669ZM10.0161 11.3086V14.8419L13.1161 13.0753L10.0161 11.3086Z" fill="#807E81"/>
</svg>
