<svg width="43" height="43" viewBox="0 0 43 43" fill="none" xmlns="http://www.w3.org/2000/svg">
<path d="M35.8333 5.375H7.16665C5.19044 5.375 3.58331 6.98212 3.58331 8.95833V34.0417C3.58331 36.0179 5.19044 37.625 7.16665 37.625H35.8333C37.8095 37.625 39.4166 36.0179 39.4166 34.0417V8.95833C39.4166 6.98212 37.8095 5.375 35.8333 5.375ZM35.8351 16.125C35.8333 16.125 35.8333 16.125 35.8351 16.125H35.0002L30.2218 8.95833H35.8333L35.8351 16.125ZM17.0835 16.125L12.3051 8.95833H16.9581L21.7365 16.125H17.0835ZM26.0419 16.125L21.2635 8.95833H25.9164L30.6948 16.125H26.0419ZM7.16665 8.95833H7.99977L12.7781 16.125H7.16665V8.95833ZM7.16665 34.0417V19.7083H35.8333L35.8369 34.0417H7.16665Z" fill="#FFFFFF"/>
</svg>
