<svg width="43" height="43" viewBox="0 0 43 43" fill="none" xmlns="http://www.w3.org/2000/svg">
<path d="M21.5 4.47917C21.8327 4.47934 22.1587 4.57212 22.4416 4.74711C22.7245 4.9221 22.9531 5.1724 23.1018 5.46996L27.7243 14.7114L37.883 16.1877C38.2139 16.2358 38.5248 16.3755 38.7805 16.591C39.0361 16.8066 39.2263 17.0894 39.3296 17.4074C39.4329 17.7254 39.4451 18.066 39.3649 18.3907C39.2846 18.7153 39.1151 19.011 38.8756 19.2443L31.4814 26.454L33.1441 36.6199C33.1975 36.949 33.158 37.2864 33.0301 37.5943C32.9022 37.9022 32.6909 38.1683 32.42 38.3627C32.1492 38.557 31.8294 38.6719 31.4968 38.6945C31.1642 38.7171 30.8318 38.6464 30.5372 38.4904L21.5 33.6959L12.4628 38.4904C12.1682 38.6464 11.8359 38.7171 11.5032 38.6945C11.1706 38.6719 10.8509 38.557 10.58 38.3627C10.3091 38.1683 10.0978 37.9022 9.96992 37.5943C9.84201 37.2864 9.80255 36.949 9.85597 36.6199L11.5186 26.454L4.12443 19.2443C3.88488 19.011 3.7154 18.7153 3.63516 18.3907C3.55493 18.066 3.56714 17.7254 3.67042 17.4074C3.7737 17.0894 3.96393 16.8066 4.21957 16.591C4.47522 16.3755 4.78609 16.2358 5.11701 16.1877L15.2758 14.7114L19.8983 5.46996C20.047 5.1724 20.2755 4.9221 20.5584 4.74711C20.8413 4.57212 21.1674 4.47934 21.5 4.47917ZM21.5 10.277L18.0636 17.1498C17.9346 17.4083 17.7451 17.6318 17.5111 17.8012C17.2771 17.9706 17.0057 18.0809 16.7198 18.1227L9.22351 19.212L14.6881 24.5387C14.8946 24.7399 15.0495 24.9879 15.1397 25.2618C15.2298 25.5357 15.2525 25.8272 15.2059 26.1117L13.975 33.6314L20.6597 30.0839C20.9185 29.9465 21.207 29.8746 21.5 29.8746C21.793 29.8746 22.0815 29.9465 22.3403 30.0839L29.025 33.6314L27.7941 26.1117C27.7478 25.8275 27.7707 25.5363 27.8608 25.2628C27.9509 24.9892 28.1057 24.7415 28.3119 24.5405L33.7765 19.212L26.282 18.1227C25.9962 18.0809 25.7247 17.9706 25.4907 17.8012C25.2567 17.6318 25.0672 17.4083 24.9382 17.1498L21.5 10.277Z" fill="#E4B200"/>
</svg>
