<svg width="43" height="43" viewBox="0 0 43 43" fill="none" xmlns="http://www.w3.org/2000/svg">
<path d="M39.4166 18.0958C39.5958 17.2 38.8791 16.125 37.9833 16.125L27.7708 14.6917L23.1125 5.375C22.9333 5.01667 22.7541 4.8375 22.3958 4.65833C21.5 4.12083 20.425 4.47917 19.8875 5.375L15.4083 14.6917L5.19581 16.125C4.65831 16.125 4.29998 16.3042 4.12081 16.6625C3.40415 17.3792 3.40415 18.4542 4.12081 19.1708L11.4666 26.3375L9.67498 36.55C9.67498 36.9083 9.67498 37.2667 9.85415 37.625C10.3916 38.5208 11.4666 38.8792 12.3625 38.3417L21.5 33.5042L30.6375 38.3417C30.8166 38.5208 31.175 38.5208 31.5333 38.5208H31.8916C32.7875 38.3417 33.5041 37.4458 33.325 36.3708L31.5333 26.1583L38.8791 18.9917C39.2375 18.8125 39.4166 18.4542 39.4166 18.0958Z" fill="#E4B200"/>
</svg>
