<svg width="43" height="43" viewBox="0 0 43 43" fill="none" xmlns="http://www.w3.org/2000/svg">
<path d="M18.1406 14.1094C18.1406 13.5778 18.2983 13.0582 18.5936 12.6163C18.8889 12.1743 19.3086 11.8299 19.7997 11.6264C20.2907 11.423 20.8311 11.3698 21.3524 11.4735C21.8738 11.5772 22.3526 11.8332 22.7285 12.209C23.1043 12.5849 23.3603 13.0637 23.464 13.5851C23.5677 14.1064 23.5145 14.6468 23.3111 15.1378C23.1076 15.6289 22.7632 16.0486 22.3212 16.3439C21.8793 16.6393 21.3597 16.7969 20.8281 16.7969C20.1154 16.7969 19.4318 16.5137 18.9278 16.0097C18.4238 15.5057 18.1406 14.8221 18.1406 14.1094ZM39.6406 21.5C39.6406 25.0879 38.5767 28.5952 36.5834 31.5784C34.5901 34.5616 31.7569 36.8867 28.4421 38.2598C25.1274 39.6328 21.4799 39.992 17.9609 39.2921C14.442 38.5921 11.2097 36.8644 8.67265 34.3274C6.13564 31.7903 4.40791 28.558 3.70795 25.0391C3.00799 21.5201 3.36724 17.8726 4.74026 14.5579C6.11328 11.2431 8.43841 8.40994 11.4216 6.41662C14.4048 4.4233 17.9121 3.35938 21.5 3.35938C26.3096 3.36471 30.9206 5.27766 34.3215 8.67853C37.7223 12.0794 39.6353 16.6904 39.6406 21.5ZM35.6094 21.5C35.6094 18.7094 34.7819 15.9815 33.2315 13.6613C31.6812 11.341 29.4776 9.53254 26.8994 8.46464C24.3213 7.39673 21.4844 7.11732 18.7474 7.66173C16.0105 8.20615 13.4964 9.54993 11.5232 11.5232C9.54994 13.4964 8.20615 16.0104 7.66174 18.7474C7.11733 21.4843 7.39674 24.3213 8.46465 26.8994C9.53255 29.4776 11.341 31.6812 13.6613 33.2315C15.9815 34.7819 18.7094 35.6094 21.5 35.6094C25.2408 35.6054 28.8273 34.1176 31.4724 31.4724C34.1176 28.8273 35.6054 25.2408 35.6094 21.5ZM23.5156 27.6611V22.1719C23.5156 21.2809 23.1617 20.4264 22.5317 19.7964C21.9017 19.1664 21.0472 18.8125 20.1563 18.8125C19.6802 18.8118 19.2193 18.9796 18.8552 19.2861C18.491 19.5927 18.2471 20.0182 18.1666 20.4874C18.0862 20.9565 18.1743 21.439 18.4155 21.8494C18.6567 22.2598 19.0353 22.5716 19.4844 22.7295V28.2188C19.4844 29.1097 19.8383 29.9642 20.4683 30.5942C21.0983 31.2242 21.9528 31.5781 22.8438 31.5781C23.3198 31.5788 23.7807 31.4111 24.1448 31.1045C24.509 30.798 24.7529 30.3724 24.8334 29.9033C24.9138 29.4341 24.8257 28.9516 24.5845 28.5412C24.3433 28.1308 23.9647 27.8191 23.5156 27.6611Z" fill="#E4B200"/>
</svg>
