<svg width="67" height="80" viewBox="0 0 67 80" fill="none" xmlns="http://www.w3.org/2000/svg">
<g clip-path="url(#clip0_11_10)">
<path d="M60 6.66667H6.66667V71.3542L28.6979 50.2083L33.3333 45.7813L37.9687 50.2083L60 71.3542V6.66667ZM60.625 0C61.4236 0 62.1875 0.15625 62.9167 0.46875C64.0625 0.920139 64.974 1.63194 65.651 2.60417C66.3281 3.57639 66.6667 4.65278 66.6667 5.83333V72.9688C66.6667 74.1493 66.3281 75.2257 65.651 76.1979C64.974 77.1701 64.0625 77.8819 62.9167 78.3333C62.2569 78.6111 61.4931 78.75 60.625 78.75C58.9583 78.75 57.5174 78.1944 56.3021 77.0833L33.3333 55L10.3646 77.0833C9.11458 78.2292 7.67361 78.8021 6.04167 78.8021C5.24306 78.8021 4.47917 78.6458 3.75 78.3333C2.60417 77.8819 1.69271 77.1701 1.01562 76.1979C0.338542 75.2257 0 74.1493 0 72.9688V5.83333C0 4.65278 0.338542 3.57639 1.01562 2.60417C1.69271 1.63194 2.60417 0.920139 3.75 0.46875C4.47917 0.15625 5.24306 0 6.04167 0H60.625Z" fill="white"/>
</g>
<defs>
<clipPath id="clip0_11_10">
<rect width="66.6667" height="80" fill="white"/>
</clipPath>
</defs>
</svg>
