<svg width="80" height="80" viewBox="0 0 80 80" fill="none" xmlns="http://www.w3.org/2000/svg">
<path d="M13.3333 60H66.6667C68.5 60 70 58.5 70 56.6667C70 54.8333 68.5 53.3333 66.6667 53.3333H13.3333C11.5 53.3333 10 54.8333 10 56.6667C10 58.5 11.5 60 13.3333 60ZM13.3333 43.3333H66.6667C68.5 43.3333 70 41.8333 70 40C70 38.1667 68.5 36.6667 66.6667 36.6667H13.3333C11.5 36.6667 10 38.1667 10 40C10 41.8333 11.5 43.3333 13.3333 43.3333ZM10 23.3333C10 25.1667 11.5 26.6667 13.3333 26.6667H66.6667C68.5 26.6667 70 25.1667 70 23.3333C70 21.5 68.5 20 66.6667 20H13.3333C11.5 20 10 21.5 10 23.3333Z" fill="white"/>
</svg>
