<svg width="80" height="80" viewBox="0 0 80 80" fill="none" xmlns="http://www.w3.org/2000/svg">
<g clip-path="url(#clip0_8_6)">
<path d="M55.3846 33.8462C55.3846 27.9167 53.2772 22.8446 49.0625 18.6298C44.8478 14.4151 39.7756 12.3077 33.8462 12.3077C27.9167 12.3077 22.8446 14.4151 18.6298 18.6298C14.4151 22.8446 12.3077 27.9167 12.3077 33.8462C12.3077 39.7756 14.4151 44.8478 18.6298 49.0625C22.8446 53.2772 27.9167 55.3846 33.8462 55.3846C39.7756 55.3846 44.8478 53.2772 49.0625 49.0625C53.2772 44.8478 55.3846 39.7756 55.3846 33.8462ZM80 73.8462C80 75.5128 79.391 76.9551 78.1731 78.1731C76.9551 79.391 75.5128 80 73.8462 80C72.1154 80 70.6731 79.391 69.5192 78.1731L53.0288 61.7308C47.2917 65.7051 40.8974 67.6923 33.8462 67.6923C29.2628 67.6923 24.8798 66.8029 20.6971 65.024C16.5144 63.2452 12.9087 60.8413 9.87981 57.8125C6.85096 54.7837 4.44712 51.1779 2.66827 46.9952C0.889423 42.8125 0 38.4295 0 33.8462C0 29.2628 0.889423 24.8798 2.66827 20.6971C4.44712 16.5144 6.85096 12.9087 9.87981 9.87981C12.9087 6.85096 16.5144 4.44712 20.6971 2.66827C24.8798 0.889423 29.2628 0 33.8462 0C38.4295 0 42.8125 0.889423 46.9952 2.66827C51.1779 4.44712 54.7837 6.85096 57.8125 9.87981C60.8413 12.9087 63.2452 16.5144 65.024 20.6971C66.8029 24.8798 67.6923 29.2628 67.6923 33.8462C67.6923 40.8974 65.7051 47.2917 61.7308 53.0288L78.2212 69.5192C79.4071 70.7051 80 72.1474 80 73.8462Z" fill="#E4B200"/>
</g>
<defs>
<clipPath id="clip0_8_6">
<rect width="80" height="80" fill="white"/>
</clipPath>
</defs>
</svg>
