<svg width="80" height="80" viewBox="0 0 80 80" fill="none" xmlns="http://www.w3.org/2000/svg">
<g clip-path="url(#clip0_8_4)">
<path d="M40 0C45.4167 0 50.5952 1.05655 55.5357 3.16964C60.4762 5.28274 64.7321 8.125 68.3036 11.6964C71.875 15.2679 74.7173 19.5238 76.8304 24.4643C78.9435 29.4048 80 34.5833 80 40C80 45.3869 78.9509 50.5506 76.8527 55.4911C74.7545 60.4315 71.9196 64.6875 68.3482 68.2589C64.7768 71.8304 60.5208 74.6801 55.5804 76.808C50.6399 78.936 45.4464 80 40 80C34.5536 80 29.3601 78.9435 24.4196 76.8304C19.4792 74.7173 15.2307 71.8676 11.6741 68.2813C8.11756 64.6949 5.28274 60.439 3.16964 55.5134C1.05655 50.5878 0 45.4167 0 40C0 34.5833 1.05655 29.4048 3.16964 24.4643C5.28274 19.5238 8.125 15.2679 11.6964 11.6964C15.2679 8.125 19.5238 5.28274 24.4643 3.16964C29.4048 1.05655 34.5833 0 40 0ZM67.6339 60.3125C72.0685 54.2113 74.2857 47.4405 74.2857 40C74.2857 35.3571 73.378 30.9226 71.5625 26.6964C69.747 22.4702 67.3065 18.8244 64.2411 15.7589C61.1756 12.6935 57.5298 10.253 53.3036 8.4375C49.0774 6.62202 44.6429 5.71429 40 5.71429C35.3571 5.71429 30.9226 6.62202 26.6964 8.4375C22.4702 10.253 18.8244 12.6935 15.7589 15.7589C12.6935 18.8244 10.253 22.4702 8.4375 26.6964C6.62202 30.9226 5.71429 35.3571 5.71429 40C5.71429 47.4405 7.93155 54.2113 12.3661 60.3125C14.3304 50.5804 18.8839 45.7143 26.0268 45.7143C29.9256 49.5238 34.5833 51.4286 40 51.4286C45.4167 51.4286 50.0744 49.5238 53.9732 45.7143C61.1161 45.7143 65.6696 50.5804 67.6339 60.3125ZM57.1429 31.4286C57.1429 26.6964 55.4688 22.6563 52.1205 19.308C48.7723 15.9598 44.7321 14.2857 40 14.2857C35.2679 14.2857 31.2277 15.9598 27.8795 19.308C24.5313 22.6563 22.8571 26.6964 22.8571 31.4286C22.8571 36.1607 24.5313 40.2009 27.8795 43.5491C31.2277 46.8973 35.2679 48.5714 40 48.5714C44.7321 48.5714 48.7723 46.8973 52.1205 43.5491C55.4688 40.2009 57.1429 36.1607 57.1429 31.4286Z" fill="#E4B200"/>
</g>
<defs>
<clipPath id="clip0_8_4">
<rect width="80" height="80" fill="white"/>
</clipPath>
</defs>
</svg>
