<svg width="23" height="22" viewBox="0 0 23 22" fill="none" xmlns="http://www.w3.org/2000/svg">
<path d="M2.44141 5.50864C2.44141 4.502 3.20333 3.66166 4.19999 3.55931L4.24225 3.55543L19.9336 2.27994C20.3619 2.24513 20.7373 2.56411 20.7721 2.9924C20.8062 3.41096 20.5023 3.77903 20.0887 3.82803L20.0597 3.83093L4.36824 5.10642C4.1666 5.12279 4.00958 5.28562 3.99822 5.48542L3.99732 7.23446C4.12547 7.208 4.2582 7.1941 4.39419 7.1941H18.822C19.9005 7.1941 20.7747 8.06841 20.7747 9.14688V17.7721C20.7747 18.8506 19.9005 19.7248 18.822 19.7248H4.39419C3.31572 19.7248 2.44141 18.8506 2.44141 17.7721V5.50864ZM18.822 8.75021H4.39419C4.17513 8.75021 3.99751 8.92782 3.99751 9.14688V17.7721C3.99751 17.9911 4.17508 18.1687 4.39419 18.1687H18.822C19.0411 18.1687 19.2185 17.9912 19.2185 17.7721V9.14688C19.2185 8.92777 19.041 8.75021 18.822 8.75021Z" fill="#807E81"/>
<path fill-rule="evenodd" clip-rule="evenodd" d="M20.6748 2.99895C20.6445 2.6257 20.3173 2.34772 19.9441 2.37806L4.25374 3.65345L4.21202 3.65729C3.26654 3.75465 2.54375 4.55199 2.54375 5.50708V17.7706C2.54375 18.7938 3.37328 19.6232 4.39653 19.6232H18.8243C19.8476 19.6232 20.6771 18.7938 20.6771 17.7706V9.14533C20.6771 8.12208 19.8476 7.29255 18.8243 7.29255H4.39653C4.26738 7.29255 4.14142 7.30575 4.01988 7.33084L3.8996 7.35567L3.90057 5.47818C3.91474 5.22883 4.11079 5.02563 4.36249 5.0052L20.0521 3.72987L20.062 3.82937L20.0539 3.7297L20.0793 3.72717L20.0911 3.82643L20.0811 3.72697C20.441 3.68385 20.7044 3.36339 20.6748 2.99895ZM19.9279 2.17871C20.4112 2.13943 20.8349 2.4994 20.8742 2.98274C20.9126 3.45512 20.5696 3.87047 20.1028 3.92578L20.101 3.92598L20.0701 3.92906L4.37869 5.20454C4.22798 5.21677 4.11031 5.33786 4.10056 5.48693L4.09972 7.11386C4.19668 7.09981 4.29578 7.09255 4.39653 7.09255H18.8243C19.958 7.09255 20.8771 8.01163 20.8771 9.14533V17.7706C20.8771 18.9043 19.958 19.8232 18.8243 19.8232H4.39653C3.26284 19.8232 2.34375 18.9043 2.34375 17.7706V5.50708C2.34375 4.44907 3.14455 3.56585 4.19212 3.45828L4.19318 3.45817L4.23649 3.4542L19.9279 2.17871ZM3.89985 9.14533C3.89985 8.87104 4.12224 8.64865 4.39653 8.64865H18.8243C19.0986 8.64865 19.3209 8.87101 19.3209 9.14533V17.7706C19.3209 18.0448 19.0986 18.2671 18.8243 18.2671H4.39653C4.12222 18.2671 3.89985 18.0448 3.89985 17.7706V9.14533ZM4.39653 8.84865C4.2327 8.84865 4.09985 8.9815 4.09985 9.14533V17.7706C4.09985 17.9343 4.23262 18.0671 4.39653 18.0671H18.8243C18.9882 18.0671 19.1209 17.9344 19.1209 17.7706V9.14533C19.1209 8.98142 18.9881 8.84865 18.8243 8.84865H4.39653Z" fill="#807E81"/>
</svg>
