<svg width="23" height="22" viewBox="0 0 23 22" fill="none" xmlns="http://www.w3.org/2000/svg">
<g clip-path="url(#clip0_44_31)">
<path d="M12.0488 3.28966C12.9395 2.95886 13.8872 3.61754 13.8872 4.56785L13.8866 7.16369C15.6458 7.74165 17.5185 7.95778 19.3906 7.7815C20.281 7.69748 20.9933 8.47366 20.869 9.33059L20.8357 9.49202L18.9845 16.4005C18.6201 17.7603 17.7072 18.9021 16.472 19.5582L16.2024 19.6913L15.2503 20.1267C12.663 21.3102 9.61705 20.5611 7.86953 18.3502L7.6808 18.0985L7.39324 17.6954C5.9804 17.7107 4.56335 17.2409 3.40813 16.286L2.6012 15.6189C1.43868 14.6579 0.765625 13.2283 0.765625 11.72V4.56785C0.765625 3.61754 1.71318 2.9589 2.6041 3.28968C5.65055 4.42142 9.00228 4.42142 12.0488 3.28966ZM13.8867 8.73053L13.8872 11.72C13.8872 12.3238 13.7793 12.9151 13.5754 13.4687C14.6249 13.929 15.4064 14.8458 15.6996 15.9592C15.8049 16.3588 15.5662 16.768 15.1666 16.8733C14.7761 16.9761 14.3763 16.7505 14.2601 16.3672L14.2525 16.3403C14.0641 15.6246 13.5435 15.0452 12.8493 14.7866C12.619 15.0917 12.3516 15.3709 12.0517 15.6188L11.2446 16.286C10.5859 16.8305 9.84208 17.2173 9.06242 17.4464L8.90031 17.2312C10.1403 18.9748 12.3993 19.6388 14.3722 18.8738L14.6278 18.7659L15.5801 18.3304C16.4653 17.9255 17.1427 17.1779 17.4612 16.2658L17.5391 16.0132L19.341 9.28795L19.2099 9.29815C17.4033 9.42936 15.6012 9.23272 13.8867 8.73053ZM12.3907 4.75763L12.2634 4.80256C9.03149 5.92436 5.51211 5.91229 2.28645 4.76642L2.2621 4.75763V11.72C2.2621 12.7628 2.71897 13.7521 3.51038 14.4283L3.5547 14.4655L4.36162 15.1326C6.08224 16.5549 8.57058 16.5549 10.2912 15.1327L11.0982 14.4655C11.9168 13.7888 12.3907 12.7821 12.3907 11.72V4.75763ZM10.3217 11.0892C10.6804 11.2942 10.805 11.7513 10.6 12.1101C9.93354 13.2761 8.69412 14.0118 7.32642 14.0118C5.95876 14.0118 4.71937 13.2761 4.05278 12.1102C3.84769 11.7514 3.97225 11.2943 4.331 11.0892C4.6812 10.889 5.12512 11.0029 5.33686 11.3422L5.35193 11.3674C5.75482 12.0721 6.50146 12.5153 7.32642 12.5153C8.15139 12.5153 8.898 12.0721 9.30075 11.3675C9.50581 11.0087 9.96289 10.8841 10.3217 11.0892Z" fill="#807E81"/>
</g>
<defs>
<clipPath id="clip0_44_31">
<rect width="22" height="22" fill="white" transform="translate(0.0429688)"/>
</clipPath>
</defs>
</svg>
