<svg width="23" height="22" viewBox="0 0 23 22" fill="none" xmlns="http://www.w3.org/2000/svg">
<path d="M11.3314 16.166C10.7871 16.166 6.0067 16.1569 4.63698 15.785C3.63011 15.5129 2.82279 14.7146 2.54159 13.7168C2.27853 12.2564 2.15154 10.8504 2.16061 9.46252C2.16061 8.10187 2.27853 6.70494 2.52345 5.3443C2.79558 4.24671 3.59382 3.42125 4.62791 3.13098C6.0067 2.75907 10.7871 2.75 11.3314 2.75C11.8665 2.75 16.6469 2.75907 17.9985 3.0947C19.0598 3.39404 19.8581 4.2195 20.1211 5.25359C20.1302 5.27173 20.1302 5.28987 20.1302 5.31708C20.3751 6.69587 20.5021 8.0928 20.493 9.48066C20.5021 10.8413 20.3751 12.2201 20.1302 13.5717C19.8581 14.6693 19.0598 15.4947 18.0257 15.785C16.656 16.1569 11.8756 16.166 11.3314 16.166ZM11.3314 4.56419C9.3811 4.56419 5.96135 4.64583 5.10867 4.87261C4.71862 4.98146 4.40114 5.30801 4.29229 5.71621C4.08365 6.92265 3.9748 8.20165 3.98387 9.47159C3.9748 10.7597 4.08366 12.0477 4.31043 13.3177C4.40114 13.6261 4.71862 13.9345 5.11775 14.0434C5.97042 14.2701 9.3811 14.3608 11.3314 14.3608C13.2816 14.3608 16.7014 14.2792 17.554 14.0434C17.9441 13.9345 18.2616 13.6079 18.3704 13.1998C18.5791 12.0115 18.697 10.7415 18.6879 9.48066C18.697 8.20165 18.5881 6.92265 18.3614 5.67085C18.2525 5.27173 17.9441 4.96332 17.545 4.84539C16.7104 4.63676 13.2907 4.56419 11.3314 4.56419Z" fill="#807E81"/>
<path d="M9.64599 12.8381C9.49178 12.8381 9.3285 12.8019 9.19244 12.7112C8.91124 12.5479 8.73889 12.2485 8.73889 11.931V7.02366C8.73889 6.6971 8.91124 6.39776 9.19244 6.24355C9.47364 6.08027 9.81834 6.08027 10.0995 6.24355L14.4173 8.70178C14.6985 8.86506 14.8799 9.1644 14.8799 9.49096C14.8799 9.81751 14.7076 10.1169 14.4173 10.2801L10.0995 12.7384C9.9544 12.7928 9.80019 12.8381 9.64599 12.8381ZM9.97254 7.54977V11.3959L13.3469 9.47282L9.97254 7.54977ZM16.8665 19.079H5.98132C5.48241 19.079 5.07422 18.6708 5.07422 18.1719C5.07422 17.673 5.48241 17.2648 5.98132 17.2648H16.8665C17.3654 17.2648 17.7736 17.673 17.7736 18.1719C17.7736 18.6708 17.3745 19.079 16.8665 19.079Z" fill="#807E81"/>
</svg>
