<svg width="75" height="75" viewBox="0 0 75 75" fill="none" xmlns="http://www.w3.org/2000/svg">
<path d="M39.3948 65.7919L71.3115 40.7919C71.8095 40.4022 72.2122 39.9042 72.4892 39.3357C72.7662 38.7672 72.9102 38.1431 72.9102 37.5107C72.9102 36.8783 72.7662 36.2542 72.4892 35.6857C72.2122 35.1172 71.8095 34.6192 71.3115 34.2294L39.3948 9.22941C38.797 8.75296 38.0758 8.45678 37.3157 8.3756C36.5556 8.29443 35.7881 8.43161 35.1031 8.77108C34.4697 9.14512 33.9625 9.70008 33.647 10.3646C33.3314 11.0292 33.2218 11.7729 33.3323 12.5002V26.4586L10.7698 9.20858C10.172 8.73212 9.45079 8.43595 8.69068 8.35477C7.93056 8.27359 7.16306 8.41078 6.47814 8.75025C5.78076 9.09677 5.19445 9.63179 4.78571 10.2946C4.37697 10.9574 4.16216 11.7215 4.16563 12.5002V62.5003C4.16605 63.2754 4.38269 64.0351 4.79121 64.6939C5.19974 65.3527 5.78394 65.8845 6.47814 66.2294C7.16368 66.5664 7.9307 66.7022 8.69027 66.6211C9.44985 66.54 10.1709 66.2452 10.7698 65.7711L33.3323 48.5627V62.5003C33.2218 63.2276 33.3314 63.9713 33.647 64.6359C33.9625 65.3004 34.4697 65.8554 35.1031 66.2294C35.7887 66.5664 36.5557 66.7022 37.3153 66.6211C38.0748 66.54 38.7959 66.2452 39.3948 65.7711V65.7919ZM8.3323 62.5003L8.2073 12.5002L37.499 35.0002V12.5002L68.749 37.5002L37.499 62.5003V40.0003L8.3323 62.5003Z" fill="white"/>
</svg>
