<svg width="75" height="75" viewBox="0 0 75 75" fill="none" xmlns="http://www.w3.org/2000/svg">
<path d="M26.9297 14.3637C26.573 14.1632 26.17 14.0595 25.7609 14.0631C25.3517 14.0667 24.9506 14.1773 24.5974 14.384C24.2443 14.5906 23.9514 14.8862 23.7479 15.2412C23.5444 15.5962 23.4374 15.9982 23.4375 16.4074V58.5949C23.4374 59.0041 23.5444 59.4062 23.7479 59.7612C23.9514 60.1162 24.2443 60.4117 24.5974 60.6184C24.9506 60.8251 25.3517 60.9357 25.7609 60.9392C26.17 60.9428 26.573 60.8392 26.9297 60.6387L64.4297 39.5449C64.7915 39.3408 65.0926 39.0443 65.3021 38.6856C65.5116 38.3269 65.622 37.9189 65.622 37.5035C65.622 37.0881 65.5116 36.6802 65.3021 36.3215C65.0926 35.9628 64.7915 35.6662 64.4297 35.4621L26.9297 14.3684V14.3637ZM18.75 16.4074C18.7505 15.1803 19.0721 13.9746 19.6829 12.9103C20.2938 11.846 21.1725 10.96 22.2318 10.3406C23.2911 9.72108 24.4941 9.38964 25.7212 9.37916C26.9483 9.36869 28.1568 9.67955 29.2266 10.2809L66.7266 31.3746C67.8143 31.9862 68.7196 32.8762 69.3497 33.9533C69.9797 35.0303 70.3118 36.2557 70.3118 37.5035C70.3118 38.7513 69.9797 39.9767 69.3497 41.0538C68.7196 42.1309 67.8143 43.0209 66.7266 43.6324L29.2266 64.7262C28.1565 65.3277 26.9476 65.6385 25.7201 65.6279C24.4926 65.6172 23.2893 65.2853 22.2298 64.6653C21.1703 64.0453 20.2917 63.1587 19.6812 62.0937C19.0707 61.0287 18.7497 59.8225 18.75 58.5949V16.4074Z" fill="white"/>
</svg>
